# xmcd CD database file
#
# Track frame offsets:
#	150
#	2061
#	39550
#	83977
#	158306
#	208076
#	245795
#	261207
#
# Disc length: 4433 seconds
#
# Revision: 5
# Processed by: cddbd v1.5.2PL0 Copyright (c) Steve Scherf et al.
# Submitted via: CDex 1.51
#
DISCID=61114f08
DTITLE=Eckhart Tolle - Jetzt! Die Kraft der Gegenwart - CD 1
DYEAR=1999
DGENRE=Books and Spoken
TTITLE0=Einleitung
TTITLE1=Die Entstehung dieses Buches
TTITLE2=Die Wahrheit die in Dir lebt
TTITLE3=Kapitel 1 Du bist nicht Dein Verstand
TTITLE4=Befreie Dich von Deinem Verstand
TTITLE5=Erleuchtung: Über das Denken hinausgehen
TTITLE6=Emotionen: Die Reaktion des Körpers auf Deinen Verstand
TTITLE7=noch Emotionen
EXTD=YEAR: 1999
EXTT0=
EXTT1=
EXTT2=
EXTT3=
EXTT4=
EXTT5=
EXTT6=
EXTT7=
PLAYORDER=
